<?xml version="1.0" encoding="utf-8"?>
<!-- Generator: Adobe Illustrator 16.0.0, SVG Export Plug-In . SVG Version: 6.00 Build 0)  -->
<!DOCTYPE svg PUBLIC "-//W3C//DTD SVG 1.1//EN" "http://www.w3.org/Graphics/SVG/1.1/DTD/svg11.dtd">
<svg version="1.1" id="Ebene_1" xmlns="http://www.w3.org/2000/svg" xmlns:xlink="http://www.w3.org/1999/xlink" x="0px" y="0px"
	 width="147.427px" height="43.25px" viewBox="0 0 147.427 43.25" enable-background="new 0 0 147.427 43.25" xml:space="preserve">
<g>
	<g>
		<path d="M7.901,34.106v5.082H0V12.187c0,0,21.964,0.016,26.107,0.016c7.755,0.032,12.529,4.553,12.529,10.922
			c0,6.392-4.764,10.977-12.529,10.977C21.913,34.101,13.864,34.099,7.901,34.106L7.901,34.106z M7.901,19.421v7.276
			c5.97-0.009,14.012-0.026,18.206-0.026c4.394,0,5.194-1.947,5.194-3.641c0-1.651-0.788-3.609-5.194-3.609H7.901L7.901,19.421z"/>
		<path d="M71.065,43.24l-3.088-4.029H43.318l-3.066,4.021l-6.142-4.044l21.488-28.182l21.623,28.218L71.065,43.24L71.065,43.24z
			 M62.458,32.026l-6.843-8.943l-6.814,8.943H62.458L62.458,32.026z"/>
		<polygon points="123.572,22.347 144.257,22.347 144.257,29.041 123.572,29.041 123.572,32.172 147.427,32.172 147.427,39.223 
			115.672,39.223 115.672,12.16 147.383,12.16 147.383,19.211 123.572,19.211 123.572,22.347 		"/>
		<path d="M111.177,22.359h-6.04h-0.909h-6.224v6.683h5.718v4.02c-2.208,1.022-4.907,1.635-7.841,1.635
			c-7.424,0-13.442-3.861-13.442-8.624c0-4.765,6.019-8.625,13.442-8.625c2.711,0,5.229,0.519,7.34,1.404l2.148-6.682
			c-2.858-1.079-6.092-1.691-9.521-1.691c-11.591,0-20.988,6.951-20.988,15.525s9.397,15.525,20.988,15.525
			c6.047,0,11.495-1.896,15.324-4.922h0.005V22.359L111.177,22.359z"/>
	</g>
</g>
</svg>
