<?xml version="1.0" encoding="utf-8"?>
<!-- Generator: Adobe Illustrator 16.0.0, SVG Export Plug-In . SVG Version: 6.00 Build 0)  -->
<!DOCTYPE svg PUBLIC "-//W3C//DTD SVG 1.1//EN" "http://www.w3.org/Graphics/SVG/1.1/DTD/svg11.dtd">
<svg version="1.1" id="Ebene_1" xmlns="http://www.w3.org/2000/svg" xmlns:xlink="http://www.w3.org/1999/xlink" x="0px" y="0px"
	 width="174.094px" height="43.25px" viewBox="0 0 174.094 43.25" enable-background="new 0 0 174.094 43.25" xml:space="preserve">
<path d="M128.217,39.339h9.697v-15.04c0-2.921,1.869-4.958,4.625-4.958c2.26,0,3.855,1.598,3.855,3.912v16.087h9.694v-15.04
	c0-2.921,1.875-4.958,4.573-4.958c2.313,0,3.856,1.598,3.856,3.912v16.087h9.695V21.655c0-6.005-4.296-10.247-10.466-10.247
	c-3.581,0-6.778,1.433-9.696,4.075c-1.707-2.531-4.794-4.075-8.428-4.075c-3.196,0-6.062,1.157-8.482,3.415l-1.212-2.755h-7.713
	V39.339z M123.864,12.068h-9.695v14.653c0,3.196-2.094,5.398-5.015,5.398c-2.531,0-4.354-1.815-4.354-4.407V12.068h-9.695v17.246
	c0,6.332,4.521,10.686,10.913,10.686c3.631,0,6.775-1.266,8.923-3.638l1.21,2.977h7.714V12.068z M93.18,12.068H83.044L77.701,28.43
	l-5.345-16.361H62.221l11.019,27.271h8.923L93.18,12.068z M41.728,25.731c0-4.022,2.315-6.83,5.619-6.83
	c3.307,0,5.675,2.808,5.675,6.83c0,3.964-2.368,6.778-5.675,6.778C44.043,32.51,41.728,29.695,41.728,25.731 M31.812,25.731
	c0,8.37,6.443,14.269,15.534,14.269c9.145,0,15.535-5.898,15.535-14.269c0-8.429-6.391-14.323-15.535-14.323
	C38.256,11.408,31.812,17.303,31.812,25.731 M0.522,39.339h9.695V24.741c0-3.197,2.094-5.401,5.067-5.401
	c2.479,0,4.299,1.818,4.299,4.353v15.646h9.695V22.095c0-6.28-4.462-10.687-10.907-10.687c-3.637,0-6.777,1.321-8.926,3.638
	l-1.213-2.978H0.522V39.339z"/>
</svg>
