<?xml version="1.0" encoding="utf-8"?>
<!-- Generator: Adobe Illustrator 16.0.0, SVG Export Plug-In . SVG Version: 6.00 Build 0)  -->
<!DOCTYPE svg PUBLIC "-//W3C//DTD SVG 1.1//EN" "http://www.w3.org/Graphics/SVG/1.1/DTD/svg11.dtd">
<svg version="1.1" id="Ebene_1" xmlns="http://www.w3.org/2000/svg" xmlns:xlink="http://www.w3.org/1999/xlink" x="0px" y="0px"
	 width="195.885px" height="43.25px" viewBox="0 0 195.885 43.25" enable-background="new 0 0 195.885 43.25" xml:space="preserve">
<g>
	<polygon points="18.559,12.013 18.559,23.592 4.098,23.592 4.098,12.013 0,12.013 0,39.251 4.098,39.251 4.098,27.672 
		18.559,27.672 18.559,39.251 22.639,39.251 22.639,12.013 	"/>
	<g>
		<path d="M37.654,39.86c-1.022,0-2.001-0.147-2.936-0.441c-0.937-0.296-1.798-0.712-2.585-1.249
			c-0.788-0.535-1.483-1.174-2.086-1.919c-0.604-0.745-1.09-1.56-1.459-2.445l3.768-1.571c0.223,0.519,0.511,0.994,0.868,1.43
			c0.357,0.438,0.766,0.813,1.229,1.128c0.461,0.313,0.962,0.557,1.505,0.729c0.541,0.172,1.108,0.259,1.699,0.259
			c0.788,0,1.533-0.151,2.234-0.453c0.702-0.302,1.312-0.71,1.829-1.226c0.517-0.52,0.925-1.126,1.229-1.821
			c0.3-0.692,0.451-1.438,0.451-2.226c0-0.786-0.151-1.533-0.451-2.231c-0.303-0.706-0.712-1.313-1.229-1.832
			c-0.517-0.516-1.126-0.923-1.829-1.225c-0.702-0.305-1.447-0.453-2.234-0.453v-4.082c1.353,0,2.628,0.259,3.823,0.776
			c1.192,0.518,2.233,1.219,3.121,2.105c0.886,0.887,1.588,1.926,2.105,3.121c0.518,1.192,0.776,2.467,0.776,3.82
			c0,1.356-0.259,2.627-0.776,3.813c-0.517,1.19-1.219,2.228-2.105,3.115c-0.887,0.887-1.928,1.587-3.121,2.103
			C40.28,39.6,39.006,39.86,37.654,39.86 M37.654,31.031c-1.356,0-2.625-0.257-3.814-0.772c-1.188-0.517-2.224-1.22-3.111-2.106
			c-0.886-0.886-1.587-1.922-2.105-3.111c-0.518-1.187-0.774-2.459-0.774-3.814c0-1.354,0.257-2.627,0.774-3.821
			c0.518-1.196,1.219-2.237,2.105-3.122c0.887-0.886,1.923-1.588,3.111-2.105c1.189-0.519,2.458-0.776,3.814-0.776
			c1.021,0,1.999,0.148,2.937,0.444c0.935,0.295,1.794,0.71,2.577,1.246c0.782,0.534,1.477,1.175,2.086,1.919
			c0.61,0.745,1.099,1.561,1.467,2.447l-3.767,1.571c-0.222-0.519-0.508-0.996-0.858-1.434c-0.352-0.436-0.758-0.813-1.219-1.125
			c-0.462-0.314-0.966-0.558-1.514-0.73c-0.549-0.171-1.119-0.257-1.709-0.257c-0.788,0-1.53,0.148-2.226,0.451
			c-0.694,0.303-1.3,0.712-1.818,1.229c-0.517,0.517-0.926,1.127-1.228,1.828c-0.302,0.702-0.453,1.446-0.453,2.235
			c0,0.787,0.151,1.53,0.453,2.226c0.301,0.696,0.711,1.301,1.228,1.818c0.518,0.518,1.124,0.927,1.818,1.228
			c0.696,0.304,1.438,0.452,2.226,0.452V31.031z"/>
		<path d="M58.335,34.431c0.75,0.432,1.555,0.763,2.409,0.998c0.856,0.233,1.746,0.352,2.67,0.352c1.403,0,2.719-0.265,3.951-0.795
			c1.231-0.529,2.306-1.253,3.224-2.17c0.916-0.916,1.639-1.99,2.168-3.22c0.53-1.233,0.794-2.551,0.794-3.953
			c0-1.404-0.265-2.72-0.794-3.951c-0.529-1.233-1.253-2.31-2.168-3.233c-0.917-0.924-1.992-1.651-3.224-2.179
			c-1.231-0.528-2.548-0.793-3.951-0.793c-0.924,0-1.814,0.117-2.67,0.35c-0.854,0.233-1.652,0.564-2.391,0.996L56.747,14.1v23.083
			L58.335,34.431z M63.414,39.862c-1.208,0-2.371-0.144-3.491-0.428c-1.121-0.282-2.179-0.693-3.176-1.237v1.054h-4.1V12.013h4.1
			v1.052c0.997-0.528,2.055-0.938,3.176-1.228c1.121-0.288,2.283-0.434,3.491-0.434c1.304,0,2.563,0.169,3.776,0.507
			c1.212,0.34,2.344,0.816,3.398,1.434c1.051,0.614,2.012,1.356,2.88,2.224c0.868,0.868,1.608,1.828,2.225,2.881
			c0.616,1.053,1.093,2.188,1.432,3.408c0.337,1.218,0.506,2.479,0.506,3.784s-0.168,2.564-0.506,3.776
			c-0.339,1.214-0.816,2.348-1.432,3.398c-0.617,1.053-1.357,2.014-2.225,2.88c-0.869,0.869-1.829,1.61-2.88,2.228
			c-1.054,0.614-2.186,1.093-3.398,1.43C65.979,39.688,64.719,39.862,63.414,39.862"/>
		<path d="M97.798,27.58l2.29-2.31c0.516,0.518,1.124,0.927,1.82,1.228c0.694,0.304,1.441,0.452,2.243,0.452
			c0.786,0,1.529-0.148,2.224-0.452c0.696-0.301,1.304-0.71,1.819-1.228c0.52-0.518,0.928-1.122,1.229-1.818
			c0.302-0.693,0.451-1.438,0.451-2.226s-0.149-1.532-0.451-2.236c-0.302-0.699-0.71-1.311-1.229-1.827
			c-0.516-0.518-1.124-0.925-1.819-1.229c-0.694-0.303-1.438-0.451-2.224-0.451c-0.802,0-1.549,0.152-2.243,0.461
			c-0.696,0.307-1.304,0.713-1.82,1.218l-2.29-2.29V27.58z M93.698,12.014h4.1v1.733c0.851-0.738,1.819-1.312,2.91-1.726
			c1.088-0.413,2.235-0.619,3.443-0.619c1.354,0,2.625,0.259,3.812,0.776c1.19,0.517,2.228,1.219,3.114,2.105
			s1.588,1.926,2.104,3.122c0.52,1.192,0.776,2.467,0.776,3.821c0,1.355-0.259,2.628-0.776,3.814
			c-0.516,1.189-1.218,2.224-2.104,3.111c-0.886,0.887-1.923,1.59-3.114,2.108c-1.186,0.516-2.457,0.772-3.812,0.772
			c-1.208,0-2.355-0.204-3.443-0.618c-1.09-0.411-2.061-0.982-2.91-1.706v10.544h-4.1V12.014z"/>
		<path d="M124.655,34.098c0.529,0.529,1.139,0.941,1.827,1.237c0.69,0.294,1.434,0.443,2.235,0.443c0.787,0,1.53-0.149,2.226-0.453
			c0.694-0.302,1.302-0.71,1.82-1.228s0.925-1.124,1.229-1.819c0.302-0.694,0.451-1.439,0.451-2.226
			c0-0.774-0.145-1.512-0.435-2.208c-0.289-0.694-0.69-1.302-1.208-1.827c-0.518-0.524-1.124-0.939-1.82-1.247
			c-0.696-0.309-1.451-0.463-2.263-0.463c-0.394,0-0.776,0.041-1.145,0.121c-0.369,0.081-0.72,0.188-1.053,0.322l-1.569-3.785
			c1.192-0.492,2.449-0.739,3.767-0.739c1.071,0,2.083,0.157,3.038,0.47c0.955,0.314,1.831,0.76,2.631,1.339
			c0.037-0.271,0.055-0.544,0.055-0.812c0-0.787-0.149-1.532-0.451-2.235c-0.302-0.701-0.711-1.311-1.229-1.829
			c-0.516-0.516-1.124-0.924-1.818-1.228c-0.696-0.302-1.439-0.451-2.226-0.451c-0.802,0-1.549,0.153-2.243,0.46
			c-0.696,0.308-1.302,0.713-1.819,1.218l-2.29-2.288v21.531L124.655,34.098z M128.718,39.862c-1.219,0-2.371-0.208-3.453-0.621
			c-1.083-0.412-2.051-0.982-2.9-1.708v1.718h-4.098V12.013h4.098v1.735c0.849-0.738,1.819-1.313,2.91-1.728
			c1.088-0.411,2.235-0.617,3.443-0.617c1.353,0,2.625,0.258,3.814,0.774c1.188,0.518,2.226,1.219,3.112,2.106
			c0.886,0.886,1.588,1.927,2.106,3.122c0.518,1.192,0.774,2.467,0.774,3.821c0,0.803-0.1,1.563-0.306,2.291
			c-0.202,0.727-0.445,1.435-0.729,2.123c0.285,0.64,0.528,1.337,0.729,2.086c0.206,0.749,0.306,1.526,0.306,2.328
			c0,1.353-0.259,2.625-0.774,3.812c-0.518,1.188-1.22,2.228-2.106,3.111c-0.886,0.887-1.924,1.587-3.112,2.104
			C131.343,39.6,130.071,39.862,128.718,39.862"/>
		<path d="M152.724,39.86c-1.023,0-2.002-0.147-2.937-0.441c-0.935-0.296-1.798-0.712-2.584-1.249
			c-0.788-0.535-1.484-1.174-2.086-1.919c-0.606-0.745-1.09-1.56-1.459-2.445l3.767-1.571c0.222,0.519,0.51,0.994,0.869,1.43
			c0.355,0.438,0.765,0.813,1.228,1.128c0.46,0.313,0.963,0.557,1.506,0.729c0.541,0.172,1.106,0.259,1.698,0.259
			c0.787,0,1.532-0.151,2.235-0.453c0.7-0.302,1.31-0.71,1.828-1.226c0.518-0.52,0.925-1.126,1.228-1.821
			c0.302-0.692,0.453-1.438,0.453-2.226c0-0.786-0.151-1.533-0.453-2.231c-0.302-0.706-0.71-1.313-1.228-1.832
			c-0.518-0.516-1.127-0.923-1.828-1.225c-0.702-0.305-1.449-0.453-2.235-0.453v-4.082c1.355,0,2.628,0.259,3.824,0.776
			c1.192,0.518,2.233,1.219,3.12,2.105s1.588,1.926,2.106,3.121c0.516,1.192,0.774,2.467,0.774,3.82
			c0,1.356-0.259,2.627-0.774,3.813c-0.518,1.19-1.22,2.228-2.106,3.115c-0.886,0.887-1.927,1.587-3.12,2.103
			C155.352,39.6,154.079,39.86,152.724,39.86 M152.724,31.031c-1.354,0-2.625-0.257-3.813-0.772
			c-1.188-0.517-2.226-1.22-3.112-2.106c-0.886-0.886-1.588-1.922-2.106-3.111c-0.518-1.187-0.774-2.459-0.774-3.814
			c0-1.354,0.259-2.627,0.774-3.821c0.518-1.196,1.22-2.237,2.106-3.122c0.886-0.886,1.923-1.588,3.112-2.105
			c1.188-0.519,2.459-0.776,3.813-0.776c1.022,0,2,0.148,2.936,0.444c0.936,0.295,1.794,0.71,2.577,1.246
			c0.782,0.534,1.478,1.175,2.086,1.919c0.61,0.745,1.1,1.561,1.469,2.447l-3.769,1.571c-0.222-0.519-0.508-0.996-0.857-1.434
			c-0.351-0.436-0.759-0.813-1.22-1.125c-0.46-0.314-0.966-0.558-1.514-0.73c-0.547-0.171-1.118-0.257-1.708-0.257
			c-0.788,0-1.529,0.148-2.225,0.451c-0.696,0.303-1.302,0.712-1.82,1.229s-0.925,1.127-1.229,1.828
			c-0.302,0.702-0.451,1.446-0.451,2.235c0,0.787,0.149,1.53,0.451,2.226c0.304,0.696,0.712,1.301,1.229,1.818
			s1.124,0.927,1.82,1.228c0.694,0.304,1.437,0.452,2.225,0.452V31.031L152.724,31.031z"/>
	</g>
	<path d="M180.006,16.554l6.055,12.151H173.93L180.006,16.554z M177.734,12.013l-13.61,27.238h4.525l4.541-9.087v2.622h13.61v-2.622
		l4.543,9.087h4.541l-13.608-27.238H177.734z"/>
</g>
</svg>
