<?xml version="1.0" encoding="utf-8"?>
<!-- Generator: Adobe Illustrator 16.0.0, SVG Export Plug-In . SVG Version: 6.00 Build 0)  -->
<!DOCTYPE svg PUBLIC "-//W3C//DTD SVG 1.1//EN" "http://www.w3.org/Graphics/SVG/1.1/DTD/svg11.dtd">
<svg version="1.1" id="Ebene_1" xmlns="http://www.w3.org/2000/svg" xmlns:xlink="http://www.w3.org/1999/xlink" x="0px" y="0px"
	 width="106.437px" height="43.25px" viewBox="0 0 106.437 43.25" enable-background="new 0 0 106.437 43.25" xml:space="preserve">
<g>
	<path fill="#1D1D1B" d="M17.854,12.075H11.33v-2.69c0-1.431,0.172-2.289,0.573-2.861c0.629-0.859,1.716-1.087,3.605-1.087
		c1.087,0,1.602,0.057,2.346,0.114V0.287C16.881,0.172,15.451,0,13.562,0C9.27,0,6.752,1.145,5.608,3.777
		C5.093,5.036,4.807,6.466,4.807,8.87v3.205H0v5.092h4.807v22.146h6.523V17.167h6.524V12.075L17.854,12.075z M16.996,25.809
		C16.996,34.507,22.26,40,30.615,40s13.619-5.493,13.619-14.191c0-8.755-5.321-14.364-13.619-14.364
		C22.318,11.445,16.996,17.054,16.996,25.809 M23.462,25.693c0-5.436,2.861-8.697,7.153-8.697s7.153,3.205,7.153,8.697
		c0,5.38-2.976,8.699-7.153,8.699C26.438,34.393,23.462,31.131,23.462,25.693 M46.752,12.075v27.238h6.523V27.068
		c0-2.404,0.229-4.007,0.744-5.38c0.973-2.46,2.918-3.72,6.41-3.72c0.572,0,1.202,0.057,1.831,0.114v-6.638
		c-0.571-0.057-0.686-0.057-1.03-0.057c-5.265,0-7.439,3.319-7.954,4.693v-4.005H46.752L46.752,12.075z M86.351,14.021
		c-1.603-1.774-3.947-2.633-6.753-2.633c-4.292,0-7.209,1.889-8.526,4.178v-3.49h-6.523v27.238h6.523V24.722
		c0-4.407,1.888-7.554,5.895-7.554c4.921,0,5.265,3.434,5.265,8.355v13.791h6.524V24.722c0-4.407,1.831-7.554,5.894-7.554
		c4.922,0,5.265,3.434,5.265,8.355v13.791h6.524v-15.45c0-6.009-0.688-7.897-2.403-9.843c-1.431-1.603-3.72-2.633-7.211-2.633
		c-4.921,0-7.667,2.232-9.328,4.235C87.151,15.05,86.808,14.535,86.351,14.021"/>
</g>
</svg>
